Coordinates
version=1
nRows=14
nColumns=24
inDegrees=yes

Units are S.I. units (second, meters, Newtons, ...)
Angles are in degrees.

endheader
time	pelvis_tilt	pelvis_list	pelvis_rotation	pelvis_tx	pelvis_ty	pelvis_tz	hip_flexion_r	hip_adduction_r	hip_rotation_r	knee_angle_r	ankle_angle_r	subtalar_angle_r	mtp_angle_r	hip_flexion_l	hip_adduction_l	hip_rotation_l	knee_angle_l	ankle_angle_l	subtalar_angle_l	mtp_angle_l	lumbar_extension	lumbar_bending	lumbar_rotation
      0.97466667	     -1.54846621	      3.15135346	      2.02463270	     -0.09184036	      1.00217928	      0.29281444	    -14.06857633	     -0.94275805	     -3.69349991	     -9.12262681	     11.99282813	     -0.08212065	      3.17255364	     20.60646531	      5.60306120	      5.43121854	     -0.76050041	      1.13661747	     -7.08296085	      1.93044015	    -12.49854435	      1.05944716	      6.32962910
      0.97883333	     -1.55371196	      3.22679708	      1.99859285	     -0.08609243	      1.00156537	      0.29239082	    -14.09646633	     -1.08248345	     -3.79952685	     -9.77791313	     12.04423482	      0.13966537	      3.36951520	     20.55033361	      5.76449925	      5.61612452	     -0.83475383	      0.98629570	     -7.12221718	      1.95580203	    -12.46998090	      0.96017589	      6.27917111
      0.98300000	     -1.58905719	      3.30734608	      1.97469902	     -0.08034182	      1.00092774	      0.29196038	    -14.06632983	     -1.23035055	     -3.88695613	    -10.48466622	     12.06974883	      0.32157561	      3.60237063	     20.53836964	      5.93583019	      5.81377091	     -1.00366026	      0.80203268	     -7.21270255	      1.98838128	    -12.40726515	      0.85848926	      6.22621067
      0.98716667	     -1.59375167	      3.40369538	      1.95944739	     -0.07457571	      1.00033635	      0.29150537	    -14.05118335	     -1.39600015	     -4.00200952	    -11.23130071	     12.08366544	      0.53025679	      3.91892427	     20.49696488	      6.12972846	      6.03138902	     -1.24495051	      0.56994767	     -7.37842576	      2.03495957	    -12.38123886	      0.73979569	      6.15652145
      0.99133333	     -1.59449626	      3.51448122	      1.94391411	     -0.06878820	      0.99977696	      0.29105430	    -14.02125909	     -1.57790463	     -4.10830916	    -12.01550302	     12.06566407	      0.70393784	      4.30275046	     20.45397987	      6.33958999	      6.24625789	     -1.55115475	      0.29259963	     -7.59833391	      2.09171930	    -12.35348598	      0.59784841	      6.07943308
      0.99550000	     -1.60812805	      3.61613806	      1.94396795	     -0.06298837	      0.99923687	      0.29060677	    -13.98861139	     -1.73641886	     -4.13883110	    -12.75384811	     11.84190193	      0.59734152	      9.47884116	     20.42794365	      6.54710276	      6.52475556	     -1.91617219	     -0.05424851	     -7.94669845	      2.88578821	    -12.31930177	      0.46984367	      6.01158889
      0.99966667	     -1.59858420	      3.75717205	      1.92254091	     -0.05716923	      0.99873069	      0.29014467	    -13.91854337	     -1.95934011	     -4.25678363	    -13.64070767	     11.78453850	      0.80575950	      9.54980146	     20.39867494	      6.78776233	      6.64161182	     -2.37013730	     -0.33466452	     -8.09533771	      2.88273303	    -12.30425704	      0.29604491	      5.92136837
      1.00383333	     -1.59475614	      3.90033401	      1.91114620	     -0.05134841	      0.99823000	      0.28967263	    -13.83142276	     -2.17878803	     -4.34131415	    -14.54340295	     11.66510467	      0.92220166	      9.67467746	     20.37036830	      7.03722617	      6.84093591	     -2.85115317	     -0.69442300	     -8.41921216	      2.88512573	    -12.29076098	      0.13021549	      5.82397974
      1.00800000	     -1.60016807	      4.02292037	      1.90697072	     -0.04553252	      0.99773649	      0.28919300	    -13.70289652	     -2.37701715	     -4.43375547	    -15.49966518	     11.49921208	      1.02458893	      9.88459051	     20.36014190	      7.26945780	      7.04716955	     -3.37705776	     -1.09412915	     -8.83828134	      2.89436189	    -12.24825780	     -0.02647663	      5.72673396
      1.01216667	     -1.58614965	      4.18887366	      1.89816538	     -0.03966428	      0.99731111	      0.28874208	    -13.60284961	     -2.61316549	     -4.47324858	    -16.43480225	     11.23938135	      0.98904599	     10.03570366	     20.34361908	      7.54062865	      7.16017780	     -3.96870402	     -1.44150777	     -9.13279509	      2.89956443	    -12.24517987	     -0.25114043	      5.62436557
      1.01633333	     -1.59265688	      4.31153687	      1.88820760	     -0.03386423	      0.99684670	      0.28822794	    -13.39787353	     -2.82609567	     -4.59246620	    -17.52843924	     11.01526532	      1.13776282	     10.38977688	     20.33180715	      7.77469381	      7.38884560	     -4.52641221	     -1.92461277	     -9.69383557	      2.91367029	    -12.20171427	     -0.37466778	      5.51070922
      1.02050000	     -1.55339363	      4.45552841	      1.88750079	     -0.02801500	      0.99648823	      0.28773884	    -13.27380659	     -3.04097006	     -4.63857847	    -18.52838102	     10.54039491	      0.95139672	     16.40719467	     20.28423511	      8.03066488	      7.58001352	     -5.14167806	     -2.35317788	    -10.22870709	      3.24563188	    -12.23392747	     -0.55184052	      5.41128925
      1.02466667	     -1.53607302	      4.62086765	      1.86657698	     -0.02217222	      0.99610679	      0.28725893	    -13.05648685	     -3.30084930	     -4.73864673	    -19.68014337	     10.18295753	      1.02372146	     16.47917306	     20.27788725	      8.29540730	      7.62852340	     -5.79824572	     -2.72780984	    -10.54652681	      3.23609114	    -12.22068074	     -0.74835540	      5.28562839
      1.02883333	     -1.50557545	      4.78806903	      1.84742268	     -0.01633549	      0.99577814	      0.28678181	    -12.83324210	     -3.55832870	     -4.81420769	    -20.85503224	      9.74804503	      1.01027484	     16.62413921	     20.25252765	      8.56427985	      7.72274122	     -6.45749847	     -3.11553691	    -10.98865778	      3.22460085	    -12.23380971	     -0.94569803	      5.16450953
